<svg width="79" height="66" viewBox="0 0 79 66" fill="none" xmlns="http://www.w3.org/2000/svg">
<path d="M56.87 23.0125C56.87 22.9774 56.9185 22.9423 56.9185 22.9423C59.5256 17.2849 55.1319 11.5924 46.7784 8.53509C47.4477 9.35513 47.8879 10.3 48.0639 11.2944C48.2399 12.2887 48.1468 13.3052 47.7921 14.2627C46.752 16.5663 44.7755 18.4563 42.239 19.5727C42.6255 17.8159 41.2728 15.1807 39.6319 13.5283C41.0321 13.3177 43.3013 12.1927 43.6392 10.8229C38.7629 13.1422 33.837 10.2253 30.3608 14.161C30.6984 14.1786 31.0369 14.1786 31.3745 14.161C34.5613 14.3014 35.7197 14.8288 35.4789 16.0933C35.3593 16.5545 35.1182 16.9851 34.7746 17.351C34.4309 17.717 33.9943 18.0084 33.4991 18.202C32.7879 18.5493 32.1106 18.9466 31.4737 19.39C29.0447 18.2963 27.1691 16.4554 26.211 14.2249C25.8444 13.2688 25.7451 12.2504 25.9214 11.2542C26.0977 10.258 26.5445 9.31282 27.2247 8.4973C18.8712 11.5573 14.4775 17.2471 17.0846 22.9045C17.0846 22.9396 17.1331 22.9747 17.1331 22.9747C18.0742 21.774 19.2509 20.7272 20.6093 19.8823C20.171 20.6659 19.8934 21.5102 19.7888 22.3771C19.547 24.4147 20.9957 26.6971 22.5406 28.4206C22.4166 27.6461 22.505 26.857 22.7987 26.118C23.0923 25.379 23.5829 24.711 24.2301 24.169C24.1608 25.0299 24.3093 25.8935 24.6651 26.6989C25.2072 27.8607 26.0181 28.9129 27.0472 29.7901C28.0763 30.6672 29.3017 31.3505 30.6471 31.7974C29.6642 30.3995 29.129 28.7978 29.0971 27.1588C29.6261 27.9891 30.2574 28.7669 30.9798 29.4781L31.0284 29.5132V29.5483C31.6738 30.113 32.0783 30.8529 32.1749 31.6453C32.2715 32.4377 32.0544 33.235 31.5595 33.9052C30.1492 35.94 28.3153 37.7277 26.1521 39.1765C26.2006 39.1765 34.023 39.8443 35.326 34.1869C35.1328 36.5413 35.761 40.4068 37.0641 41.8828C38.3681 40.3717 38.8993 36.3658 38.8021 34.0816C39.2847 38.7904 47.88 39.1765 47.9761 39.1765C45.8128 37.7277 43.9789 35.94 42.5686 33.9052C42.0623 33.2383 41.8384 32.4387 41.9353 31.6436C42.0323 30.8486 42.444 30.1077 43.0998 29.5483V29.5132L43.1483 29.4781C43.8708 28.7669 44.5021 27.9891 45.0311 27.1588C44.9992 28.7978 44.464 30.3995 43.4811 31.7974C44.823 31.3454 46.0456 30.6607 47.0748 29.7849C48.1039 28.9092 48.9182 27.8605 49.4682 26.7025C49.824 25.8971 49.9725 25.0335 49.9032 24.1726C50.5408 24.7207 51.0249 25.3893 51.3179 26.1266C51.6109 26.8639 51.7049 27.6501 51.5927 28.4242C53.1427 26.7025 54.5894 24.4183 54.3445 22.3807C54.2399 21.5138 53.9623 20.6695 53.524 19.8859C54.8228 20.7669 55.9522 21.8223 56.87 23.0125Z" fill="#1A1A1A"/>
<path d="M10.834 53.063C10.386 53.063 10.0243 52.9837 9.749 52.825C9.47833 52.6617 9.34067 52.4447 9.336 52.174C9.336 52.0573 9.38267 51.9593 9.476 51.88C9.574 51.8007 9.728 51.7587 9.938 51.754C9.98 51.9593 10.078 52.118 10.232 52.23C10.386 52.3373 10.5727 52.391 10.792 52.391C11.03 52.391 11.2167 52.3607 11.352 52.3C11.4873 52.2393 11.555 52.1483 11.555 52.027C11.555 51.915 11.499 51.8217 11.387 51.747C11.2797 51.6723 11.065 51.5977 10.743 51.523C10.393 51.439 10.12 51.355 9.924 51.271C9.73267 51.187 9.59033 51.0797 9.497 50.949C9.40367 50.8183 9.357 50.6457 9.357 50.431C9.357 50.1323 9.483 49.892 9.735 49.71C9.987 49.528 10.3323 49.437 10.771 49.437C11.1957 49.437 11.548 49.514 11.828 49.668C12.108 49.8173 12.248 50.018 12.248 50.27C12.248 50.396 12.2013 50.4893 12.108 50.55C12.0147 50.6107 11.8607 50.6433 11.646 50.648C11.5993 50.4613 11.5107 50.3213 11.38 50.228C11.2493 50.1347 11.065 50.088 10.827 50.088C10.6497 50.088 10.4957 50.1183 10.365 50.179C10.239 50.2397 10.176 50.319 10.176 50.417C10.176 50.5197 10.2297 50.599 10.337 50.655C10.4443 50.711 10.631 50.767 10.897 50.823C11.4197 50.935 11.7977 51.0843 12.031 51.271C12.269 51.4577 12.388 51.712 12.388 52.034C12.388 52.3467 12.248 52.5963 11.968 52.783C11.6927 52.9697 11.3147 53.063 10.834 53.063ZM13.0155 48.709C13.0155 48.4943 13.0902 48.3287 13.2395 48.212C13.3889 48.0953 13.6035 48.037 13.8835 48.037V49.857C13.8229 49.9223 13.7669 49.997 13.7155 50.081L13.7575 50.109C14.0795 49.661 14.4902 49.437 14.9895 49.437C15.2275 49.437 15.4375 49.4907 15.6195 49.598C15.8015 49.7053 15.9415 49.8523 16.0395 50.039C16.1422 50.2257 16.1935 50.4357 16.1935 50.669V52.531C16.1935 52.7177 16.1212 52.853 15.9765 52.937C15.8319 53.021 15.6125 53.063 15.3185 53.063V50.795C15.3185 50.6177 15.2649 50.473 15.1575 50.361C15.0549 50.249 14.9032 50.193 14.7025 50.193C14.4645 50.193 14.2685 50.2677 14.1145 50.417C13.9605 50.5617 13.8835 50.7437 13.8835 50.963V52.531C13.8835 52.7177 13.8112 52.853 13.6665 52.937C13.5219 53.021 13.3049 53.063 13.0155 53.063V48.709ZM18.7452 50.193C18.4699 50.193 18.2459 50.2677 18.0732 50.417C17.9005 50.5617 17.8142 50.7437 17.8142 50.963V52.531C17.8142 52.7177 17.7442 52.853 17.6042 52.937C17.4642 53.021 17.2449 53.063 16.9462 53.063V50.109C16.9462 49.8943 17.0139 49.7287 17.1492 49.612C17.2892 49.4953 17.4992 49.437 17.7792 49.437V49.85C17.7092 49.9293 17.6532 50.0063 17.6112 50.081L17.6532 50.109C17.9472 49.661 18.3159 49.437 18.7592 49.437C18.9599 49.437 19.1115 49.4907 19.2142 49.598C19.3169 49.7007 19.3682 49.8313 19.3682 49.99C19.3682 50.1113 19.3355 50.214 19.2702 50.298C19.1442 50.228 18.9692 50.193 18.7452 50.193ZM21.1792 53.063C20.8899 53.063 20.6262 53.007 20.3882 52.895C20.1502 52.7783 19.9612 52.622 19.8212 52.426C19.6812 52.2253 19.6112 52.0013 19.6112 51.754V50.823C19.6112 50.5617 19.6836 50.326 19.8282 50.116C19.9729 49.906 20.1642 49.7403 20.4022 49.619C20.6449 49.4977 20.9062 49.437 21.1862 49.437C21.4616 49.437 21.7136 49.4953 21.9422 49.612C22.1756 49.724 22.3599 49.8827 22.4952 50.088C22.6306 50.2887 22.6982 50.5197 22.6982 50.781V51.173C22.6982 51.2757 22.6586 51.362 22.5792 51.432C22.5046 51.502 22.4089 51.537 22.2922 51.537H20.4582V51.691C20.4582 51.8917 20.5189 52.055 20.6402 52.181C20.7616 52.307 20.9436 52.37 21.1862 52.37C21.4196 52.37 21.5922 52.3187 21.7042 52.216C21.8209 52.1133 21.8792 51.9803 21.8792 51.817C21.9632 51.8077 22.0216 51.803 22.0542 51.803C22.2269 51.803 22.3622 51.8427 22.4602 51.922C22.5582 51.9967 22.6072 52.104 22.6072 52.244C22.6072 52.3793 22.5442 52.51 22.4182 52.636C22.2922 52.762 22.1196 52.8647 21.9002 52.944C21.6809 53.0233 21.4406 53.063 21.1792 53.063ZM21.9072 50.914V50.781C21.9072 50.585 21.8396 50.4263 21.7042 50.305C21.5689 50.1837 21.3939 50.123 21.1792 50.123C20.9646 50.123 20.7896 50.1837 20.6542 50.305C20.5236 50.4217 20.4582 50.5803 20.4582 50.781V50.914H21.9072ZM23.6175 54.463C23.4355 54.463 23.2909 54.4 23.1835 54.274C23.0809 54.148 23.0295 53.966 23.0295 53.728C23.1695 53.7513 23.2862 53.763 23.3795 53.763C23.5569 53.763 23.6969 53.7163 23.7995 53.623C23.9069 53.5297 24.0235 53.343 24.1495 53.063L24.2615 52.804L22.9105 49.507C22.9432 49.4883 22.9992 49.472 23.0785 49.458C23.1625 49.444 23.2302 49.437 23.2815 49.437C23.4169 49.437 23.5405 49.4673 23.6525 49.528C23.7645 49.584 23.8415 49.6633 23.8835 49.766L24.6325 51.733L24.5135 52.062L24.5765 52.083L25.4795 49.766C25.5215 49.6587 25.5962 49.577 25.7035 49.521C25.8155 49.465 25.9392 49.437 26.0745 49.437C26.1259 49.437 26.1912 49.444 26.2705 49.458C26.3545 49.472 26.4152 49.4883 26.4525 49.507L24.8845 53.315C24.7212 53.707 24.5415 53.9963 24.3455 54.183C24.1542 54.3697 23.9115 54.463 23.6175 54.463ZM27.8289 53.063C27.5909 53.063 27.3716 53.0163 27.1709 52.923C26.9749 52.8297 26.8162 52.6967 26.6949 52.524C26.5782 52.3467 26.5199 52.1367 26.5199 51.894C26.5199 51.6513 26.5829 51.4413 26.7089 51.264C26.8349 51.082 27.0052 50.9443 27.2199 50.851C27.4392 50.753 27.6796 50.704 27.9409 50.704C28.1556 50.704 28.3469 50.739 28.5149 50.809C28.6876 50.8743 28.8462 50.9747 28.9909 51.11L29.0259 51.075C28.9839 51.033 28.9116 50.97 28.8089 50.886V50.746C28.8089 50.5547 28.7412 50.403 28.6059 50.291C28.4706 50.179 28.2816 50.123 28.0389 50.123C27.6049 50.123 27.2852 50.2817 27.0799 50.599C26.9772 50.5663 26.8909 50.515 26.8209 50.445C26.7509 50.3703 26.7159 50.291 26.7159 50.207C26.7159 50.067 26.7789 49.9387 26.9049 49.822C27.0309 49.7053 27.2012 49.612 27.4159 49.542C27.6306 49.472 27.8639 49.437 28.1159 49.437C28.6106 49.437 28.9932 49.5537 29.2639 49.787C29.5346 50.0157 29.6699 50.3283 29.6699 50.725V52.475C29.6699 52.6803 29.6046 52.8297 29.4739 52.923C29.3432 53.0163 29.1379 53.063 28.8579 53.063V52.776C28.9372 52.6967 28.9909 52.6383 29.0189 52.601L28.9909 52.566C28.8369 52.7293 28.6712 52.853 28.4939 52.937C28.3212 53.021 28.0996 53.063 27.8289 53.063ZM28.0529 52.426C28.2956 52.426 28.4846 52.3793 28.6199 52.286C28.7552 52.1927 28.8229 52.0597 28.8229 51.887C28.8229 51.719 28.7529 51.586 28.6129 51.488C28.4776 51.39 28.2932 51.341 28.0599 51.341C27.8452 51.341 27.6749 51.39 27.5489 51.488C27.4276 51.5813 27.3669 51.7143 27.3669 51.887C27.3669 52.0643 27.4276 52.1997 27.5489 52.293C27.6702 52.3817 27.8382 52.426 28.0529 52.426ZM31.7725 53.063C31.3245 53.063 30.9628 52.9837 30.6875 52.825C30.4168 52.6617 30.2791 52.4447 30.2745 52.174C30.2745 52.0573 30.3211 51.9593 30.4145 51.88C30.5125 51.8007 30.6665 51.7587 30.8765 51.754C30.9185 51.9593 31.0165 52.118 31.1705 52.23C31.3245 52.3373 31.5111 52.391 31.7305 52.391C31.9685 52.391 32.1551 52.3607 32.2905 52.3C32.4258 52.2393 32.4935 52.1483 32.4935 52.027C32.4935 51.915 32.4375 51.8217 32.3255 51.747C32.2181 51.6723 32.0035 51.5977 31.6815 51.523C31.3315 51.439 31.0585 51.355 30.8625 51.271C30.6711 51.187 30.5288 51.0797 30.4355 50.949C30.3421 50.8183 30.2955 50.6457 30.2955 50.431C30.2955 50.1323 30.4215 49.892 30.6735 49.71C30.9255 49.528 31.2708 49.437 31.7095 49.437C32.1341 49.437 32.4865 49.514 32.7665 49.668C33.0465 49.8173 33.1865 50.018 33.1865 50.27C33.1865 50.396 33.1398 50.4893 33.0465 50.55C32.9531 50.6107 32.7991 50.6433 32.5845 50.648C32.5378 50.4613 32.4491 50.3213 32.3185 50.228C32.1878 50.1347 32.0035 50.088 31.7655 50.088C31.5881 50.088 31.4341 50.1183 31.3035 50.179C31.1775 50.2397 31.1145 50.319 31.1145 50.417C31.1145 50.5197 31.1681 50.599 31.2755 50.655C31.3828 50.711 31.5695 50.767 31.8355 50.823C32.3581 50.935 32.7361 51.0843 32.9695 51.271C33.2075 51.4577 33.3265 51.712 33.3265 52.034C33.3265 52.3467 33.1865 52.5963 32.9065 52.783C32.6311 52.9697 32.2531 53.063 31.7725 53.063ZM37.2847 53.063C36.9954 53.063 36.7317 53.007 36.4937 52.895C36.2557 52.7783 36.0667 52.622 35.9267 52.426C35.7867 52.2253 35.7167 52.0013 35.7167 51.754V50.823C35.7167 50.5617 35.789 50.326 35.9337 50.116C36.0784 49.906 36.2697 49.7403 36.5077 49.619C36.7504 49.4977 37.0117 49.437 37.2917 49.437C37.567 49.437 37.819 49.4953 38.0477 49.612C38.281 49.724 38.4654 49.8827 38.6007 50.088C38.736 50.2887 38.8037 50.5197 38.8037 50.781V51.173C38.8037 51.2757 38.764 51.362 38.6847 51.432C38.61 51.502 38.5144 51.537 38.3977 51.537H36.5637V51.691C36.5637 51.8917 36.6244 52.055 36.7457 52.181C36.867 52.307 37.049 52.37 37.2917 52.37C37.525 52.37 37.6977 52.3187 37.8097 52.216C37.9264 52.1133 37.9847 51.9803 37.9847 51.817C38.0687 51.8077 38.127 51.803 38.1597 51.803C38.3324 51.803 38.4677 51.8427 38.5657 51.922C38.6637 51.9967 38.7127 52.104 38.7127 52.244C38.7127 52.3793 38.6497 52.51 38.5237 52.636C38.3977 52.762 38.225 52.8647 38.0057 52.944C37.7864 53.0233 37.546 53.063 37.2847 53.063ZM38.0127 50.914V50.781C38.0127 50.585 37.945 50.4263 37.8097 50.305C37.6744 50.1837 37.4994 50.123 37.2847 50.123C37.07 50.123 36.895 50.1837 36.7597 50.305C36.629 50.4217 36.5637 50.5803 36.5637 50.781V50.914H38.0127ZM39.4775 50.109C39.4775 49.8943 39.5451 49.7287 39.6805 49.612C39.8205 49.4953 40.0305 49.437 40.3105 49.437V49.857C40.2545 49.9223 40.1985 49.997 40.1425 50.081L40.1845 50.109C40.3245 49.899 40.5041 49.7357 40.7235 49.619C40.9428 49.4977 41.1855 49.437 41.4515 49.437C41.6895 49.437 41.8995 49.4907 42.0815 49.598C42.2635 49.7053 42.4035 49.8523 42.5015 50.039C42.6041 50.2257 42.6555 50.4357 42.6555 50.669V52.531C42.6555 52.7177 42.5831 52.853 42.4385 52.937C42.2938 53.021 42.0745 53.063 41.7805 53.063V50.795C41.7805 50.6177 41.7268 50.473 41.6195 50.361C41.5168 50.249 41.3651 50.193 41.1645 50.193C40.9265 50.193 40.7305 50.2677 40.5765 50.417C40.4225 50.5617 40.3455 50.7437 40.3455 50.963V52.531C40.3455 52.7177 40.2755 52.853 40.1355 52.937C39.9955 53.021 39.7761 53.063 39.4775 53.063V50.109ZM44.9716 53.063C44.5936 53.063 44.3136 52.9533 44.1316 52.734C43.9496 52.5147 43.8586 52.2323 43.8586 51.887V50.151H43.1376C43.1376 49.9317 43.1796 49.7683 43.2636 49.661C43.3476 49.5537 43.4596 49.5 43.5996 49.5H43.8726V48.919C43.8726 48.7277 43.9426 48.5923 44.0826 48.513C44.2226 48.429 44.4349 48.387 44.7196 48.387V49.5H45.6506C45.6506 49.7333 45.6062 49.9013 45.5176 50.004C45.4289 50.102 45.2866 50.151 45.0906 50.151H44.7336V51.852C44.7336 52.0153 44.7639 52.132 44.8246 52.202C44.8899 52.272 44.9996 52.307 45.1536 52.307C45.3169 52.307 45.4802 52.2627 45.6436 52.174C45.6902 52.216 45.7276 52.2697 45.7556 52.335C45.7836 52.3957 45.7976 52.4587 45.7976 52.524C45.7976 52.664 45.7252 52.79 45.5806 52.902C45.4359 53.0093 45.2329 53.063 44.9716 53.063ZM47.7984 53.063C47.509 53.063 47.2454 53.007 47.0074 52.895C46.7694 52.7783 46.5804 52.622 46.4404 52.426C46.3004 52.2253 46.2304 52.0013 46.2304 51.754V50.823C46.2304 50.5617 46.3027 50.326 46.4474 50.116C46.592 49.906 46.7834 49.7403 47.0214 49.619C47.264 49.4977 47.5254 49.437 47.8054 49.437C48.0807 49.437 48.3327 49.4953 48.5614 49.612C48.7947 49.724 48.979 49.8827 49.1144 50.088C49.2497 50.2887 49.3174 50.5197 49.3174 50.781V51.173C49.3174 51.2757 49.2777 51.362 49.1984 51.432C49.1237 51.502 49.028 51.537 48.9114 51.537H47.0774V51.691C47.0774 51.8917 47.138 52.055 47.2594 52.181C47.3807 52.307 47.5627 52.37 47.8054 52.37C48.0387 52.37 48.2114 52.3187 48.3234 52.216C48.44 52.1133 48.4984 51.9803 48.4984 51.817C48.5824 51.8077 48.6407 51.803 48.6734 51.803C48.846 51.803 48.9814 51.8427 49.0794 51.922C49.1774 51.9967 49.2264 52.104 49.2264 52.244C49.2264 52.3793 49.1634 52.51 49.0374 52.636C48.9114 52.762 48.7387 52.8647 48.5194 52.944C48.3 53.0233 48.0597 53.063 47.7984 53.063ZM48.5264 50.914V50.781C48.5264 50.585 48.4587 50.4263 48.3234 50.305C48.188 50.1837 48.013 50.123 47.7984 50.123C47.5837 50.123 47.4087 50.1837 47.2734 50.305C47.1427 50.4217 47.0774 50.5803 47.0774 50.781V50.914H48.5264ZM51.7901 50.193C51.5148 50.193 51.2908 50.2677 51.1181 50.417C50.9455 50.5617 50.8591 50.7437 50.8591 50.963V52.531C50.8591 52.7177 50.7891 52.853 50.6491 52.937C50.5091 53.021 50.2898 53.063 49.9911 53.063V50.109C49.9911 49.8943 50.0588 49.7287 50.1941 49.612C50.3341 49.4953 50.5441 49.437 50.8241 49.437V49.85C50.7541 49.9293 50.6981 50.0063 50.6561 50.081L50.6981 50.109C50.9921 49.661 51.3608 49.437 51.8041 49.437C52.0048 49.437 52.1565 49.4907 52.2591 49.598C52.3618 49.7007 52.4131 49.8313 52.4131 49.99C52.4131 50.1113 52.3805 50.214 52.3151 50.298C52.1891 50.228 52.0141 50.193 51.7901 50.193ZM53.0126 50.039C53.0126 49.8663 53.0803 49.724 53.2156 49.612C53.3509 49.4953 53.5516 49.437 53.8176 49.437V49.815C53.7383 49.9223 53.6939 49.9853 53.6846 50.004L53.7126 50.032C53.8619 49.836 54.0253 49.689 54.2026 49.591C54.3846 49.4883 54.6086 49.437 54.8746 49.437C55.1313 49.437 55.3576 49.4907 55.5536 49.598C55.7543 49.7007 55.9106 49.8477 56.0226 50.039C56.1346 50.2303 56.1906 50.4497 56.1906 50.697V51.803C56.1906 52.055 56.1276 52.2767 56.0016 52.468C55.8803 52.6593 55.7123 52.8063 55.4976 52.909C55.2829 53.0117 55.0403 53.063 54.7696 53.063C54.5969 53.063 54.4173 53.028 54.2306 52.958C54.0486 52.8833 53.8946 52.783 53.7686 52.657L53.7406 52.692C53.7733 52.7387 53.8246 52.7877 53.8946 52.839V53.875C53.8946 54.267 53.6006 54.463 53.0126 54.463V50.039ZM54.6016 52.307C54.8303 52.307 55.0076 52.258 55.1336 52.16C55.2596 52.062 55.3226 51.9243 55.3226 51.747V50.753C55.3226 50.571 55.2596 50.4333 55.1336 50.34C55.0123 50.242 54.8349 50.193 54.6016 50.193C54.3916 50.193 54.2189 50.2443 54.0836 50.347C53.9483 50.445 53.8806 50.5687 53.8806 50.718V51.782C53.8806 51.9267 53.9459 52.0503 54.0766 52.153C54.2119 52.2557 54.3869 52.307 54.6016 52.307ZM58.6876 50.193C58.4123 50.193 58.1883 50.2677 58.0156 50.417C57.8429 50.5617 57.7566 50.7437 57.7566 50.963V52.531C57.7566 52.7177 57.6866 52.853 57.5466 52.937C57.4066 53.021 57.1873 53.063 56.8886 53.063V50.109C56.8886 49.8943 56.9563 49.7287 57.0916 49.612C57.2316 49.4953 57.4416 49.437 57.7216 49.437V49.85C57.6516 49.9293 57.5956 50.0063 57.5536 50.081L57.5956 50.109C57.8896 49.661 58.2583 49.437 58.7016 49.437C58.9023 49.437 59.0539 49.4907 59.1566 49.598C59.2593 49.7007 59.3106 49.8313 59.3106 49.99C59.3106 50.1113 59.2779 50.214 59.2126 50.298C59.0866 50.228 58.9116 50.193 58.6876 50.193ZM60.3133 49.108C60.1453 49.108 60.0053 49.059 59.8933 48.961C59.786 48.8583 59.7323 48.7277 59.7323 48.569C59.7323 48.415 59.786 48.289 59.8933 48.191C60.0053 48.0883 60.1453 48.037 60.3133 48.037C60.4813 48.037 60.619 48.0883 60.7263 48.191C60.8383 48.289 60.8943 48.415 60.8943 48.569C60.8943 48.7277 60.8383 48.8583 60.7263 48.961C60.619 49.059 60.4813 49.108 60.3133 49.108ZM59.8723 49.969C59.8723 49.7777 59.9447 49.6423 60.0893 49.563C60.234 49.479 60.4533 49.437 60.7473 49.437V52.531C60.7473 52.7177 60.675 52.853 60.5303 52.937C60.3857 53.021 60.1663 53.063 59.8723 53.063V49.969ZM63.1426 53.063C62.6946 53.063 62.3329 52.9837 62.0576 52.825C61.7869 52.6617 61.6493 52.4447 61.6446 52.174C61.6446 52.0573 61.6913 51.9593 61.7846 51.88C61.8826 51.8007 62.0366 51.7587 62.2466 51.754C62.2886 51.9593 62.3866 52.118 62.5406 52.23C62.6946 52.3373 62.8813 52.391 63.1006 52.391C63.3386 52.391 63.5253 52.3607 63.6606 52.3C63.7959 52.2393 63.8636 52.1483 63.8636 52.027C63.8636 51.915 63.8076 51.8217 63.6956 51.747C63.5883 51.6723 63.3736 51.5977 63.0516 51.523C62.7016 51.439 62.4286 51.355 62.2326 51.271C62.0413 51.187 61.8989 51.0797 61.8056 50.949C61.7123 50.8183 61.6656 50.6457 61.6656 50.431C61.6656 50.1323 61.7916 49.892 62.0436 49.71C62.2956 49.528 62.6409 49.437 63.0796 49.437C63.5043 49.437 63.8566 49.514 64.1366 49.668C64.4166 49.8173 64.5566 50.018 64.5566 50.27C64.5566 50.396 64.5099 50.4893 64.4166 50.55C64.3233 50.6107 64.1693 50.6433 63.9546 50.648C63.9079 50.4613 63.8193 50.3213 63.6886 50.228C63.5579 50.1347 63.3736 50.088 63.1356 50.088C62.9583 50.088 62.8043 50.1183 62.6736 50.179C62.5476 50.2397 62.4846 50.319 62.4846 50.417C62.4846 50.5197 62.5383 50.599 62.6456 50.655C62.7529 50.711 62.9396 50.767 63.2056 50.823C63.7283 50.935 64.1063 51.0843 64.3396 51.271C64.5776 51.4577 64.6966 51.712 64.6966 52.034C64.6966 52.3467 64.5566 52.5963 64.2766 52.783C64.0013 52.9697 63.6233 53.063 63.1426 53.063ZM66.8501 53.063C66.5608 53.063 66.2971 53.007 66.0591 52.895C65.8211 52.7783 65.6321 52.622 65.4921 52.426C65.3521 52.2253 65.2821 52.0013 65.2821 51.754V50.823C65.2821 50.5617 65.3545 50.326 65.4991 50.116C65.6438 49.906 65.8351 49.7403 66.0731 49.619C66.3158 49.4977 66.5771 49.437 66.8571 49.437C67.1325 49.437 67.3845 49.4953 67.6131 49.612C67.8465 49.724 68.0308 49.8827 68.1661 50.088C68.3015 50.2887 68.3691 50.5197 68.3691 50.781V51.173C68.3691 51.2757 68.3295 51.362 68.2501 51.432C68.1755 51.502 68.0798 51.537 67.9631 51.537H66.1291V51.691C66.1291 51.8917 66.1898 52.055 66.3111 52.181C66.4325 52.307 66.6145 52.37 66.8571 52.37C67.0905 52.37 67.2631 52.3187 67.3751 52.216C67.4918 52.1133 67.5501 51.9803 67.5501 51.817C67.6341 51.8077 67.6925 51.803 67.7251 51.803C67.8978 51.803 68.0331 51.8427 68.1311 51.922C68.2291 51.9967 68.2781 52.104 68.2781 52.244C68.2781 52.3793 68.2151 52.51 68.0891 52.636C67.9631 52.762 67.7905 52.8647 67.5711 52.944C67.3518 53.0233 67.1115 53.063 66.8501 53.063ZM67.5781 50.914V50.781C67.5781 50.585 67.5105 50.4263 67.3751 50.305C67.2398 50.1837 67.0648 50.123 66.8501 50.123C66.6355 50.123 66.4605 50.1837 66.3251 50.305C66.1945 50.4217 66.1291 50.5803 66.1291 50.781V50.914H67.5781Z" fill="#030303"/>
</svg>
