<svg width="28" height="38" viewBox="0 0 28 38" fill="none" xmlns="http://www.w3.org/2000/svg">
<path d="M22.2898 9.72727C22.0767 7.92803 21.2126 6.53125 19.6974 5.53693C18.1823 4.54261 16.3239 4.04545 14.1222 4.04545C12.5123 4.04545 11.1037 4.30587 9.89631 4.8267C8.70076 5.34754 7.76563 6.06368 7.09091 6.97514C6.42803 7.8866 6.09659 8.92235 6.09659 10.0824C6.09659 11.053 6.32742 11.8875 6.78906 12.5859C7.26255 13.2725 7.86624 13.8466 8.60014 14.3082C9.33404 14.758 10.1035 15.1309 10.9084 15.4268C11.7133 15.7109 12.4531 15.9418 13.1278 16.1193L16.821 17.1136C17.768 17.3622 18.8215 17.7055 19.9815 18.1435C21.1534 18.5814 22.272 19.1792 23.3374 19.9368C24.4145 20.6825 25.3023 21.6413 26.0007 22.8132C26.6991 23.9851 27.0483 25.4233 27.0483 27.1278C27.0483 29.0928 26.5334 30.8684 25.5036 32.4545C24.4856 34.0407 22.9941 35.3014 21.0291 36.2365C19.076 37.1716 16.7027 37.6392 13.9091 37.6392C11.3049 37.6392 9.04995 37.219 7.14418 36.3786C5.25024 35.5381 3.75876 34.3662 2.66974 32.8629C1.59257 31.3596 0.982955 29.6136 0.840909 27.625H5.38636C5.50473 28.9981 5.96638 30.1345 6.77131 31.0341C7.58807 31.9219 8.6179 32.5848 9.8608 33.0227C11.1155 33.4489 12.465 33.6619 13.9091 33.6619C15.59 33.6619 17.0992 33.3897 18.4368 32.8452C19.7744 32.2888 20.8338 31.5194 21.6151 30.5369C22.3963 29.5426 22.7869 28.3826 22.7869 27.0568C22.7869 25.8494 22.4496 24.867 21.7749 24.1094C21.1001 23.3518 20.2124 22.7363 19.1115 22.2628C18.0107 21.7893 16.821 21.375 15.5426 21.0199L11.0682 19.7415C8.22727 18.9247 5.97822 17.7588 4.32102 16.2436C2.66383 14.7285 1.83523 12.7457 1.83523 10.2955C1.83523 8.25947 2.38565 6.4839 3.48651 4.96875C4.5992 3.44176 6.09067 2.25805 7.96094 1.41761C9.84304 0.56534 11.9441 0.139203 14.2642 0.139203C16.608 0.139203 18.6913 0.559421 20.5142 1.39986C22.3371 2.22845 23.7813 3.36482 24.8466 4.80895C25.9238 6.25308 26.492 7.89252 26.5511 9.72727H22.2898Z" fill="white"/>
</svg>
