<svg xmlns="http://www.w3.org/2000/svg" viewBox="0 0 32 32"><path fill="#ff7376" d="M26.29,19l-3.1-5.29a.86.86,0,0,0-1.49,0l-.85,1.46h0L14.45,4.28a.86.86,0,0,0-1.49,0L6.34,15.58A9,9,0,0,0,7.51,26.41a8.73,8.73,0,0,0,13.1-.81h0C24.47,27.38,28.54,22.88,26.29,19Z"/><path fill="#ffc2af" d="M22 24h-.14a2.33 2.33 0 0 1-2-2.33 1 1 0 0 1 1-1h0a1 1 0 0 1 1 1 .31.31 0 0 0 .27.32A1 1 0 0 1 22 24zM12.67 27h-.15a6.29 6.29 0 0 1-5.36-6.29 1 1 0 0 1 1-1h0a1 1 0 0 1 1 1A4.28 4.28 0 0 0 12.81 25a1 1 0 0 1-.14 2z"/></svg>