<svg xmlns="http://www.w3.org/2000/svg" data-name="Layer 1" viewBox="0 0 512 512"><polygon fill="#00efd1" points="142.96 206.2 142.96 131.46 142.96 106.39 483.44 106.39 483.44 226.63 299 226.63 263 226.63 142.96 226.63 142.96 206.2"/><polygon fill="#00acea" points="483.44 39.47 483.44 106.39 142.96 106.39 74.09 106.39 28.56 39.47 483.44 39.47"/><polygon fill="#00ceb4" points="432.86 398.47 432.86 360.61 432.86 282.51 481.36 282.51 481.36 472.53 432.86 472.53 432.86 398.47"/><polygon fill="#00acea" points="432.86 360.61 432.86 398.47 263 353.52 263 227 263 226.63 299 226.63 299 227 299 326.44 432.85 360.61 432.86 360.61"/><rect width="56.67" height="74.74" x="86.29" y="131.46" fill="#fedb41"/></svg>