<svg id="Layer_1" data-name="Layer 1" xmlns="http://www.w3.org/2000/svg" viewBox="0 0 512 512"><defs><style>.cls-1{fill:#79d3d3;}.cls-2{fill:#17292d;opacity:0.14;}.cls-3{fill:#d9e4e8;}.cls-4{fill:#fff;}.cls-5{fill:#141f38;}</style></defs><title>woman-3-filled</title><path class="cls-1" d="M168.42,384a62,62,0,0,1-61.89-65.24L115.2,153.6C115.2,76,178.36,12.8,256,12.8S396.8,76,396.8,153.6l8.68,165.16A62,62,0,0,1,343.58,384Z"/><path class="cls-2" d="M418.26,318.09,409.6,153.6A153.64,153.64,0,0,0,226,2.95,153.64,153.64,0,0,1,349.64,153.6l8.66,164.49a74.78,74.78,0,0,1-74.67,78.71h60A74.78,74.78,0,0,0,418.26,318.09Z"/><path class="cls-3" d="M317.64,322.78l-10.44-2v-55.3a90.63,90.63,0,0,0,12.16-10.17A89,89,0,0,0,345.6,192V160a19.22,19.22,0,0,0-19.2-19.2H185.6A19.22,19.22,0,0,0,166.4,160v29.11c0,31.48,15.12,59.32,38.4,76v55.69l-10.44,2A160,160,0,0,0,64,480a19.22,19.22,0,0,0,19.2,19.2H428.8A19.22,19.22,0,0,0,448,480,160,160,0,0,0,317.64,322.78Z"/><path class="cls-4" d="M83.2,499.2A19.22,19.22,0,0,1,64,480a159.63,159.63,0,0,1,75.93-135.94L173.2,384H338.8l33.28-39.94A159.63,159.63,0,0,1,448,480a19.22,19.22,0,0,1-19.2,19.2Z"/><path class="cls-5" d="M268.8,460.8A12.8,12.8,0,1,1,256,448,12.8,12.8,0,0,1,268.8,460.8ZM256,409.6a12.8,12.8,0,1,0,12.8,12.8A12.8,12.8,0,0,0,256,409.6ZM460.8,480a32.25,32.25,0,0,1-.37,4.87,31.83,31.83,0,0,1-.64,3.12q-.2.77-.43,1.52a32,32,0,0,1-6.87,12q-1,1.14-2.17,2.17t-2.37,2a32,32,0,0,1-5.27,3.2q-1.4.67-2.87,1.21t-3,.93a31.87,31.87,0,0,1-3.12.64,32.26,32.26,0,0,1-4.87.37H83.2a32.26,32.26,0,0,1-4.87-.37A31.87,31.87,0,0,1,75.2,511q-1.53-.39-3-.93t-2.87-1.21a32,32,0,0,1-5.27-3.2q-1.23-.92-2.37-2t-2.17-2.17a32,32,0,0,1-6.87-12q-.23-.75-.43-1.52a31.83,31.83,0,0,1-.64-3.12A32.25,32.25,0,0,1,51.2,480c0-1.85,0-3.68.1-5.51,0-.4,0-.81,0-1.21.07-1.81.16-3.62.29-5.41,0-.19,0-.37,0-.55q.19-2.57.45-5.12c0-.28.05-.55.08-.83q.3-2.77.68-5.52l.07-.47a172.23,172.23,0,0,1,49.49-98.14,74.34,74.34,0,0,1-8.7-39.14L102.4,153.6a153.6,153.6,0,0,1,307.2,0l8.66,164.49a74.34,74.34,0,0,1-8.7,39.14A172.23,172.23,0,0,1,459,455.37l.07.47q.38,2.75.68,5.52c0,.28.06.55.08.83q.26,2.55.45,5.12c0,.19,0,.37,0,.55.12,1.8.22,3.6.29,5.41,0,.4,0,.81,0,1.21C460.76,476.32,460.8,478.15,460.8,480Zm-128-288V160a6.41,6.41,0,0,0-6.4-6.4H185.6a6.41,6.41,0,0,0-6.4,6.4v29.11c0,42,32.77,77.71,73.05,79.6q1.88.09,3.75.09A76.89,76.89,0,0,0,332.8,192ZM196.71,335.37a146.57,146.57,0,0,0-37.16,12.26L179.2,371.2H332.8l19.64-23.57a146.57,146.57,0,0,0-37.16-12.26l-20.89-3.91V286.95A102.1,102.1,0,0,1,256,294.4q-2.46,0-5-.12a98.6,98.6,0,0,1-33.45-7.52v44.69Zm-74.07,4.71A172,172,0,0,1,192,310.21v-39a106.94,106.94,0,0,1-38.4-82.13V160a32,32,0,0,1,32-32H326.4a32,32,0,0,1,32,32v32A102.2,102.2,0,0,1,320,271.93v38.27a172,172,0,0,1,69.35,29.88,48.94,48.94,0,0,0,3.34-20.65L384,154.95l0-.67v-.67a128,128,0,1,0-256,0v.67l0,.67-8.66,164.49A48.94,48.94,0,0,0,122.65,340.08ZM434.11,483.58A6.37,6.37,0,0,0,435.2,480c0-1.34,0-2.68-.06-4,0-.37,0-.73,0-1.1q-.05-1.57-.14-3.14c0-.31,0-.62-.05-.93q-.26-4.14-.74-8.24l-.05-.44a146.84,146.84,0,0,0-59.58-101l-22.06,26.47-7.68,9.21H167.21l-7.68-9.21-22.06-26.47a146.84,146.84,0,0,0-59.58,101l-.05.45q-.49,4.09-.74,8.23c0,.31,0,.62-.05.93q-.09,1.57-.14,3.14c0,.37,0,.73,0,1.1,0,1.33-.06,2.67-.06,4a6.41,6.41,0,0,0,6.4,6.4H428.8A6.4,6.4,0,0,0,434.11,483.58Z"/><path class="cls-2" d="M326.4,128h-64a32,32,0,0,1,32,32v32a102.34,102.34,0,0,1-70.28,97.12A98.46,98.46,0,0,0,251,294.28,102.4,102.4,0,0,0,358.4,192V160A32,32,0,0,0,326.4,128Z"/></svg>