<svg xmlns="http://www.w3.org/2000/svg" viewBox="0 0 64 64"><path fill="#ff6663" d="M32 53.91c-.15 0-.38-.04-.58-.24l-20.71-20.7A12.65 12.65 0 0 1 7 23.99c0-3.39 1.32-6.58 3.72-8.98l1.2-1.2c2.4-2.4 5.59-3.72 8.98-3.72s6.58 1.32 8.98 3.72L32 15.93l2.12-2.12c2.4-2.4 5.59-3.72 8.98-3.72s6.58 1.32 8.98 3.72l1.2 1.2c2.4 2.4 3.72 5.59 3.72 8.98 0 3.39-1.32 6.58-3.72 8.98l-20.7 20.7c-.2.2-.43.24-.58.24z"/><g fill="#542c2c"><path d="M59.86 26.59c.8.21 1.27 1.03 1.06 1.83-.77 2.92-2.32 5.59-4.46 7.73l-20.7 20.7A5.272 5.272 0 0 1 32 58.41c-1.42 0-2.75-.55-3.76-1.56l-6.21-6.2c-.58-.59-.58-1.54 0-2.13.59-.58 1.54-.58 2.13 0l6.2 6.21c.88.88 2.4.88 3.28 0l20.7-20.7c1.77-1.77 3.04-3.97 3.68-6.38.21-.8 1.03-1.28 1.84-1.06zm.54-8.66a1.502 1.502 0 0 1-2.81 1.06c-.16-.45-.35-.89-.56-1.31-.37-.74-.07-1.64.68-2.01.74-.37 1.64-.06 2 .68.26.51.49 1.04.69 1.58zm-3.94-6.1c.59.58.59 1.53 0 2.12-.58.58-1.53.58-2.12 0l-1.2-1.2c-5.53-5.54-14.54-5.54-20.08 0-.59.58-1.53.58-2.12 0-5.54-5.54-14.55-5.54-20.08 0l-1.2 1.2A14.099 14.099 0 0 0 5.5 23.99c0 3.79 1.48 7.36 4.16 10.04l6.73 6.73c.58.58.58 1.53 0 2.12-.3.29-.68.44-1.06.44-.39 0-.77-.15-1.06-.44l-6.73-6.73c-6.71-6.71-6.71-17.62 0-24.32l1.2-1.2C15.1 4.27 25.25 3.94 32 9.65c3.1-2.63 6.99-4.06 11.1-4.06 4.6 0 8.92 1.79 12.16 5.04l1.2 1.2z"/><path d="M47.41 30.55c.82 0 1.5.67 1.5 1.5s-.68 1.5-1.5 1.5h-9.43l-4.65 8.96c-.26.5-.78.81-1.33.81-.09 0-.17-.01-.26-.03-.65-.11-1.14-.63-1.23-1.28l-1.54-12.02-.73 2.7a1.5 1.5 0 0 1-1.45 1.11h-8.12c-.83 0-1.5-.68-1.5-1.5 0-.83.67-1.5 1.5-1.5h6.98l2.4-8.9c.18-.69.83-1.17 1.55-1.11.71.05 1.29.6 1.38 1.31l1.9 14.77 2.85-5.51c.26-.49.77-.81 1.34-.81h10.34zM25.89 59.21c.58.59.58 1.54 0 2.12-.3.29-.68.44-1.06.44-.39 0-.77-.15-1.07-.44L13.13 50.7c-.58-.59-.58-1.54 0-2.12a1.49 1.49 0 0 1 2.12 0l10.64 10.63zm-5.38-14.33c.59.59.59 1.54 0 2.12-.29.29-.68.44-1.06.44s-.77-.15-1.06-.44l-.78-.78c-.59-.58-.59-1.53 0-2.12s1.53-.59 2.12 0l.78.78zm-10.13-1.17c.59.58.59 1.53 0 2.12-.29.29-.67.44-1.06.44-.38 0-.77-.15-1.06-.44l-1.08-1.09a1.49 1.49 0 0 1 0-2.12c.58-.58 1.53-.58 2.12 0l1.08 1.09z"/></g></svg>