<svg xmlns="http://www.w3.org/2000/svg" width="64" height="64" enable-background="new 0 0 64 64" viewBox="0 0 64 64"><polygon fill="#656D78" points="13.501 31.25 3.001 31.25 1.001 33.25 13.501 33.25"/><polygon fill="#656D78" points="22.5 17.25 15.001 17.25 13.001 19.25 22.5 19.25"/><polygon fill="#656D78" points="41.5 17.25 49 17.25 51 19.25 41.5 19.25"/><polygon fill="#656D78" points="24 9.25 40 9.25 42 11.25 22 11.25"/><polygon fill="#656D78" points="50.5 31.25 61 31.25 63 33.25 50.5 33.25"/><rect width="19" height="43" x="22.5" y="11.25" fill="#48CFAD"/><rect width="9" height="35" x="41.5" y="19.25" fill="#E6E9ED"/><rect width="8.999" height="35" x="13.501" y="19.25" fill="#E6E9ED"/><rect width="12" height="21" x="1.501" y="33.25" fill="#48CFAD"/><rect width="12" height="21" x="50.5" y="33.25" fill="#48CFAD"/><polygon fill="#ED5565" points="36.5 19.25 33.5 19.25 33.5 16.25 30.5 16.25 30.5 19.25 27.5 19.25 27.5 22.25 30.5 22.25 30.5 25.25 33.5 25.25 33.5 22.25 36.5 22.25"/><rect width="3" height="3" x="16.5" y="23.25" fill="#5D9CEC"/><rect width="3" height="3" x="16.5" y="30.25" fill="#5D9CEC"/><rect width="3" height="3" x="16.5" y="37.25" fill="#5D9CEC"/><rect width="3" height="3" x="16.5" y="44.25" fill="#5D9CEC"/><rect width="3" height="3" x="44.5" y="23.25" fill="#5D9CEC"/><rect width="3" height="3" x="53.5" y="37.25" fill="#5D9CEC"/><rect width="3" height="3" x="56.5" y="37.25" fill="#5D9CEC"/><rect width="3" height="3" x="53.5" y="44.25" fill="#5D9CEC"/><rect width="3" height="3" x="56.5" y="44.25" fill="#5D9CEC"/><rect width="3" height="3" x="4.501" y="44.25" fill="#5D9CEC"/><rect width="3" height="3" x="7.501" y="44.25" fill="#5D9CEC"/><rect width="3.5" height="3" x="28.5" y="37.25" fill="#5D9CEC"/><rect width="3.5" height="3" x="32" y="37.25" fill="#5D9CEC"/><rect width="3.5" height="3" x="28.5" y="30.25" fill="#5D9CEC"/><rect width="3.5" height="3" x="32" y="30.25" fill="#5D9CEC"/><rect width="3" height="3" x="4.501" y="37.25" fill="#5D9CEC"/><rect width="3" height="3" x="7.501" y="37.25" fill="#5D9CEC"/><rect width="3" height="3" x="44.5" y="30.25" fill="#5D9CEC"/><rect width="3" height="3" x="44.5" y="37.25" fill="#5D9CEC"/><rect width="3" height="3" x="44.5" y="44.25" fill="#5D9CEC"/><rect width="7" height="9" x="28.5" y="45.25" fill="#ED5565"/><path fill="#F5F7FA" d="M19.5 26.75h-3c-.276 0-.5-.224-.5-.5v-3c0-.276.224-.5.5-.5h3c.276 0 .5.224.5.5v3C20 26.526 19.776 26.75 19.5 26.75zM17 25.75h2v-2h-2V25.75zM7.501 40.75h-3c-.276 0-.5-.224-.5-.5v-3c0-.276.224-.5.5-.5h3c.276 0 .5.224.5.5v3C8.001 40.526 7.777 40.75 7.501 40.75zM5.001 39.75h2v-2h-2V39.75z"/><path fill="#F5F7FA" d="M10.501 40.75h-3c-.276 0-.5-.224-.5-.5v-3c0-.276.224-.5.5-.5h3c.276 0 .5.224.5.5v3C11.001 40.526 10.777 40.75 10.501 40.75zM8.001 39.75h2v-2h-2V39.75zM7.501 47.75h-3c-.276 0-.5-.224-.5-.5v-3c0-.276.224-.5.5-.5h3c.276 0 .5.224.5.5v3C8.001 47.526 7.777 47.75 7.501 47.75zM5.001 46.75h2v-2h-2V46.75z"/><path fill="#F5F7FA" d="M10.501 47.75h-3c-.276 0-.5-.224-.5-.5v-3c0-.276.224-.5.5-.5h3c.276 0 .5.224.5.5v3C11.001 47.526 10.777 47.75 10.501 47.75zM8.001 46.75h2v-2h-2V46.75zM19.5 33.75h-3c-.276 0-.5-.224-.5-.5v-3c0-.276.224-.5.5-.5h3c.276 0 .5.224.5.5v3C20 33.526 19.776 33.75 19.5 33.75zM17 32.75h2v-2h-2V32.75zM19.5 40.75h-3c-.276 0-.5-.224-.5-.5v-3c0-.276.224-.5.5-.5h3c.276 0 .5.224.5.5v3C20 40.526 19.776 40.75 19.5 40.75zM17 39.75h2v-2h-2V39.75zM19.5 47.75h-3c-.276 0-.5-.224-.5-.5v-3c0-.276.224-.5.5-.5h3c.276 0 .5.224.5.5v3C20 47.526 19.776 47.75 19.5 47.75zM17 46.75h2v-2h-2V46.75zM47.5 26.75h-3c-.276 0-.5-.224-.5-.5v-3c0-.276.224-.5.5-.5h3c.276 0 .5.224.5.5v3C48 26.526 47.776 26.75 47.5 26.75zM45 25.75h2v-2h-2V25.75zM47.5 33.75h-3c-.276 0-.5-.224-.5-.5v-3c0-.276.224-.5.5-.5h3c.276 0 .5.224.5.5v3C48 33.526 47.776 33.75 47.5 33.75zM45 32.75h2v-2h-2V32.75zM47.5 40.75h-3c-.276 0-.5-.224-.5-.5v-3c0-.276.224-.5.5-.5h3c.276 0 .5.224.5.5v3C48 40.526 47.776 40.75 47.5 40.75zM45 39.75h2v-2h-2V39.75zM47.5 47.75h-3c-.276 0-.5-.224-.5-.5v-3c0-.276.224-.5.5-.5h3c.276 0 .5.224.5.5v3C48 47.526 47.776 47.75 47.5 47.75zM45 46.75h2v-2h-2V46.75z"/><rect width="1" height="9" x="31.5" y="45.25" fill="#DA4453"/><path fill="#F5F7FA" d="M59.5,40.75h-3c-0.276,0-0.5-0.224-0.5-0.5v-3c0-0.276,0.224-0.5,0.5-0.5h3c0.276,0,0.5,0.224,0.5,0.5v3
				C60,40.526,59.776,40.75,59.5,40.75z M57,39.75h2v-2h-2V39.75z"/><path fill="#F5F7FA" d="M56.5 40.75h-3c-.276 0-.5-.224-.5-.5v-3c0-.276.224-.5.5-.5h3c.276 0 .5.224.5.5v3C57 40.526 56.776 40.75 56.5 40.75zM54 39.75h2v-2h-2V39.75zM35.5 33.75H32c-.276 0-.5-.224-.5-.5v-3c0-.276.224-.5.5-.5h3.5c.276 0 .5.224.5.5v3C36 33.526 35.776 33.75 35.5 33.75zM32.5 32.75H35v-2h-2.5V32.75z"/><path fill="#F5F7FA" d="M32 33.75h-3.5c-.276 0-.5-.224-.5-.5v-3c0-.276.224-.5.5-.5H32c.276 0 .5.224.5.5v3C32.5 33.526 32.276 33.75 32 33.75zM29 32.75h2.5v-2H29V32.75zM35.5 40.75H32c-.276 0-.5-.224-.5-.5v-3c0-.276.224-.5.5-.5h3.5c.276 0 .5.224.5.5v3C36 40.526 35.776 40.75 35.5 40.75zM32.5 39.75H35v-2h-2.5V39.75z"/><path fill="#F5F7FA" d="M32 40.75h-3.5c-.276 0-.5-.224-.5-.5v-3c0-.276.224-.5.5-.5H32c.276 0 .5.224.5.5v3C32.5 40.526 32.276 40.75 32 40.75zM29 39.75h2.5v-2H29V39.75zM59.5 47.75h-3c-.276 0-.5-.224-.5-.5v-3c0-.276.224-.5.5-.5h3c.276 0 .5.224.5.5v3C60 47.526 59.776 47.75 59.5 47.75zM57 46.75h2v-2h-2V46.75z"/><path fill="#F5F7FA" d="M56.5,47.75h-3c-0.276,0-0.5-0.224-0.5-0.5v-3c0-0.276,0.224-0.5,0.5-0.5h3c0.276,0,0.5,0.224,0.5,0.5v3
				C57,47.526,56.776,47.75,56.5,47.75z M54,46.75h2v-2h-2V46.75z"/><path fill="#656D78" d="M63.5,53.75h-63c-0.276,0-0.5,0.224-0.5,0.5s0.224,0.5,0.5,0.5h63c0.276,0,0.5-0.224,0.5-0.5
			S63.776,53.75,63.5,53.75z"/></svg>