<svg xmlns="http://www.w3.org/2000/svg" viewBox="0 0 32 32"><defs><linearGradient id="a" x1="1.882" x2="30.634" y1="33.826" y2="3.885" gradientUnits="userSpaceOnUse"><stop offset="0" stop-color="#4c46c8"/><stop offset="1" stop-color="#87bfff"/></linearGradient></defs><path fill="url(#a)" d="M27 15h-3.184A2.966 2.966 0 0 0 24 14V5a3 3 0 0 0-3-3H11a3 3 0 0 0-3 3v9a2.966 2.966 0 0 0 .184 1H5a3 3 0 0 0-3 3v9a3 3 0 0 0 3 3h9a2.981 2.981 0 0 0 2-.78 2.981 2.981 0 0 0 2 .78h9a3 3 0 0 0 3-3v-9a3 3 0 0 0-3-3Zm-3 4h-3v-2h3ZM17 4v3h-2V4Zm-7 10V5a1 1 0 0 1 1-1h2v3a2 2 0 0 0 2 2h2a2 2 0 0 0 2-2V4h2a1 1 0 0 1 1 1v9a1 1 0 0 1-1 1H11a1 1 0 0 1-1-1Zm1 3v2H8v-2Zm3 11H5a1 1 0 0 1-1-1v-9a1 1 0 0 1 1-1h1v2a2 2 0 0 0 2 2h3a2 2 0 0 0 2-2v-2h1a1 1 0 0 1 1 1v9a1 1 0 0 1-1 1Zm14-1a1 1 0 0 1-1 1h-9a1 1 0 0 1-1-1v-9a1 1 0 0 1 1-1h1v2a2 2 0 0 0 2 2h3a2 2 0 0 0 2-2v-2h1a1 1 0 0 1 1 1Z" data-name="Layer 2"/></svg>