<svg xmlns="http://www.w3.org/2000/svg" width="288" height="288" viewBox="0 0 64 64"><ellipse cx="25.7" cy="10.5" fill="#071a52" class="colorf9e0ac svgShape" rx="4.5" ry="5.8"/><ellipse cx="17.2" cy="7.3" fill="#071a52" class="colorf9e0ac svgShape" rx="3.1" ry="3.9"/><ellipse cx="11" cy="8.5" fill="#071a52" class="colorf9e0ac svgShape" rx="2.6" ry="3.3"/><ellipse cx="6.2" cy="11.8" fill="#071a52" class="colorf9e0ac svgShape" rx="2.3" ry="2.9"/><ellipse cx="1.9" cy="15.7" fill="#071a52" class="colorf9e0ac svgShape" rx="1.9" ry="2.5"/><path fill="#071a52" d="M24.3 47.5c1.8 2 2.4 4.8 1.8 7.5-.2 1.3-.8 2.6-1.7 3.5-.1.1-.1.2-.2.3H24c-.1.1-.2.2-.4.3-.1.1-.2.1-.3.2-.1.1-.2.1-.2.1-1.8 1.3-4.3 1.7-7.1.3-5-2.5-6.6-10.4-7.2-14.6-.2-1.7-.7-3.4-1.7-5-5.1-8.4-4.5-14.3-2.8-18 1.4-2.8 3.8-4.9 6.7-6.1 8.5-3.4 12.6-.4 14.6 3.4 1.9 3.7 1.7 8.1-.3 11.8L24 33.9c-1.2 2.1-1.7 4.5-1.6 7 .1 1.7.4 3.8.9 5.7.4.2.7.5 1 .9z" class="colorf9e0ac svgShape"/><g fill="#071a52" class="colorf9e0ac svgShape"><ellipse cx="38.3" cy="10.5" class="color000 svgShape" rx="4.5" ry="5.8"/><ellipse cx="46.8" cy="7.3" class="color000 svgShape" rx="3.1" ry="3.9"/><ellipse cx="53" cy="8.5" class="color000 svgShape" rx="2.6" ry="3.3"/><ellipse cx="57.8" cy="11.8" class="color000 svgShape" rx="2.3" ry="2.9"/><ellipse cx="62.1" cy="15.7" class="color000 svgShape" rx="1.9" ry="2.5"/><path d="M39.7 47.5c-1.8 2-2.4 4.8-1.8 7.5.2 1.3.8 2.6 1.7 3.5.1.1.1.2.2.3l.1.1c.1.1.2.2.4.3.1.1.2.1.3.2.1.1.2.1.2.1 1.8 1.3 4.3 1.7 7.1.3 5.1-2.6 6.7-10.5 7.3-14.7.2-1.7.7-3.4 1.7-5 5.1-8.4 4.5-14.3 2.8-18-1.4-2.8-3.8-4.9-6.7-6.1-8.5-3.4-12.6-.4-14.6 3.4-1.9 3.7-1.7 8.1.3 11.8l1.5 2.6c1.2 2.1 1.7 4.5 1.6 7-.1 1.7-.4 3.8-.9 5.7-.6.3-.9.6-1.2 1z" class="color000 svgShape"/></g></svg>